<svg id="LOGO_WHITE_BIG" xmlns="http://www.w3.org/2000/svg" xmlns:xlink="http://www.w3.org/1999/xlink" width="3241.64" height="745.295" viewBox="0 0 3241.64 745.295">
  <defs>
    <clipPath id="clip-path">
      <rect id="Rectangle_16" data-name="Rectangle 16" width="3241.64" height="745.295" fill="#f2d4d7"/>
    </clipPath>
  </defs>
  <g id="Group_24" data-name="Group 24" clip-path="url(#clip-path)">
    <g id="Group_23" data-name="Group 23">
      <g id="Group_22" data-name="Group 22" clip-path="url(#clip-path)">
        <g id="Group_21" data-name="Group 21" opacity="0.1">
          <g id="Group_20" data-name="Group 20">
            <g id="Group_19" data-name="Group 19" clip-path="url(#clip-path)">
              <path id="Path_11" data-name="Path 11" d="M1892.456,562.658C1860.8,583,1812.849,595.652,1767.33,595.652c-63.493,0-122.667-28.688-164.444-72.743-81.412-88.5-81.036-220.069,2.805-303.878,44.77-44.8,101.287-69.448,159.148-69.448h.31c55.551.093,107.273,22.651,149.552,65.18,21.218,21.374,37.949,49.446,49.073,81.787h-295.21a74.807,74.807,0,1,0,0,149.614h384.908a74.776,74.776,0,0,0,74.713-78.545c-.561-11.279-1.587-22.745-3.082-34.179-11.438-88.361-48.449-167.934-104.284-224.11C1950.9,38.977,1860.176.156,1765.4,0h-.561c-97.832,0-191.9,40.192-264.956,113.223-87.081,87.08-121.354,204.331-103.205,316.118,26.287,175.8,185.3,315.925,370.652,315.925,74.839,0,149.958-20.718,206.069-56.8a74.8,74.8,0,0,0-80.943-125.811" fill="#f2d4d7"/>
              <path id="Path_12" data-name="Path 12" d="M1304.905,564.121A222.626,222.626,0,0,1,1190.5,595.652c-62.813,0-119.8-28.039-173.917-85.432l-53.247-57.2A74.8,74.8,0,0,0,853.848,554.962l53.557,57.545c83.1,88.081,178.309,132.759,283.091,132.759a372.516,372.516,0,0,0,191.3-52.779,74.817,74.817,0,0,0-76.893-128.366" fill="#f2d4d7"/>
              <path id="Path_13" data-name="Path 13" d="M1016.328,233.145c37.949-40.378,103.63-83.5,174.169-83.5a222.958,222.958,0,0,1,111.352,29.692,74.791,74.791,0,1,0,74.776-129.55A372.553,372.553,0,0,0,1190.5.031c-100.39,0-206.257,48.822-282.874,130.329L547.081,509.66c-.026.028-.042.059-.069.087-.046.05-.1.081-.152.13-54.428,57.735-111.447,85.775-174.258,85.775-122.974,0-222.988-100.044-222.988-223.019S249.628,149.646,372.6,149.646c70.539,0,136.247,43.12,174.2,83.5.092.1.2.16.3.256.053.056.085.124.138.18l52.409,54.8A74.792,74.792,0,0,0,707.754,185.008l-51.891-54.267c-.03-.032-.05-.07-.076-.1C578.889,48.853,473.018.031,372.6.031,167.157.031,0,167.186,0,372.633c0,205.48,167.157,372.633,372.6,372.633,104.779,0,200.027-44.677,283.119-132.758a.382.382,0,0,0,.046-.06Z" fill="#f2d4d7"/>
              <path id="Path_14" data-name="Path 14" d="M3234.808,639.274,2974.683,72.346a74.79,74.79,0,0,0-135.969,0L2646.541,491.123,2454.4,72.346a74.79,74.79,0,0,0-135.969,0L2058.27,639.274a74.8,74.8,0,1,0,135.969,62.374l192.173-418.776,192.144,418.777a74.79,74.79,0,0,0,135.969,0L2906.7,282.872l192.14,418.777a74.8,74.8,0,0,0,135.969-62.375" fill="#f2d4d7"/>
            </g>
          </g>
        </g>
      </g>
    </g>
  </g>
</svg>
