<svg xmlns="http://www.w3.org/2000/svg" width="53.576" height="53.572" viewBox="0 0 53.576 53.572">
  <g id="Group_92" data-name="Group 92" transform="translate(-134.063 -7)">
    <path id="Path_34" data-name="Path 34" d="M804.4,75.146c-2.579,0-5.158.029-7.737-.008a33.844,33.844,0,0,1-7.486-.639c-5.972-1.437-9.611-5.182-10.969-11.157a28.1,28.1,0,0,1-.556-6.1q-.05-8.882,0-17.764a25.654,25.654,0,0,1,.844-7.251c1.645-5.5,5.339-8.785,10.888-10.052a28,28,0,0,1,6.1-.562q8.9-.05,17.8,0a26.146,26.146,0,0,1,7.014.781c5.655,1.6,9.037,5.337,10.3,11.03a34.1,34.1,0,0,1,.57,7.248q.046,7.675,0,15.351a33.177,33.177,0,0,1-.626,7.528c-1.437,6.028-5.215,9.686-11.248,11.023a34.779,34.779,0,0,1-7.085.565c-2.606.036-5.212.008-7.819.008m.016-48.877q0,.04,0,.081c-2.156,0-4.312-.032-6.468.008a41.552,41.552,0,0,0-7.381.478,9.048,9.048,0,0,0-7.5,6.843,19.938,19.938,0,0,0-.592,5.23c-.046,5.512-.088,11.024-.065,16.536a34.545,34.545,0,0,0,.464,6.767,9.073,9.073,0,0,0,6.893,7.5,19.177,19.177,0,0,0,5.027.576q9.6.04,19.2-.006a23.9,23.9,0,0,0,4.188-.393,9,9,0,0,0,7.575-6.9,20.041,20.041,0,0,0,.58-5.232q.043-9.393,0-18.787a21.886,21.886,0,0,0-.471-4.8,9.07,9.07,0,0,0-4.493-6.24,12.381,12.381,0,0,0-5.745-1.416c-3.736-.114-7.474-.169-11.211-.249" transform="translate(-643.56 -14.585)" fill="#fff"/>
    <path id="Path_35" data-name="Path 35" d="M901.968,132.158a13.766,13.766,0,1,1-13.759,13.6,13.753,13.753,0,0,1,13.759-13.6m.014,4.791a8.966,8.966,0,1,0,8.95,8.963,8.987,8.987,0,0,0-8.95-8.963" transform="translate(-741.129 -112.143)" fill="#fff"/>
    <path id="Path_36" data-name="Path 36" d="M1102.526,106.73a3.211,3.211,0,1,1,3.164-3.283,3.221,3.221,0,0,1-3.164,3.283" transform="translate(-927.331 -84.043)" fill="#fff"/>
  </g>
</svg>
