<svg xmlns="http://www.w3.org/2000/svg" xmlns:xlink="http://www.w3.org/1999/xlink" width="250" height="57.479" viewBox="0 0 250 57.479">
  <defs>
    <clipPath id="clip-path">
      <rect id="Rectangle_2" data-name="Rectangle 2" width="250" height="57.479" fill="#007864"/>
    </clipPath>
  </defs>
  <g id="Group_1" data-name="Group 1" clip-path="url(#clip-path)">
    <path id="Path_1" data-name="Path 1" d="M124.479,43.393a18.848,18.848,0,0,1-9.65,2.545,17.649,17.649,0,0,1-12.683-5.61,16.754,16.754,0,0,1,.216-23.436,17.406,17.406,0,0,1,12.274-5.356h.025a16.109,16.109,0,0,1,11.532,5.027,16.533,16.533,0,0,1,3.785,6.308H107.211a5.769,5.769,0,0,0,0,11.539H136.9a5.767,5.767,0,0,0,5.763-6.058c-.044-.87-.122-1.755-.237-2.636a29.938,29.938,0,0,0-8.043-17.284A27.769,27.769,0,0,0,114.68,0h-.044A28.862,28.862,0,0,0,94.2,8.731a27.944,27.944,0,0,0-7.959,24.38,29.154,29.154,0,0,0,28.585,24.364,30.094,30.094,0,0,0,15.893-4.38,5.769,5.769,0,0,0-6.243-9.7" transform="translate(21.47 0.001)" fill="#007864"/>
    <path id="Path_2" data-name="Path 2" d="M87.776,36.886a17.163,17.163,0,0,1-8.824,2.431c-4.844,0-9.239-2.162-13.412-6.589l-4.106-4.411a5.769,5.769,0,0,0-8.444,7.863l4.13,4.437c6.409,6.794,13.752,10.239,21.832,10.239a28.726,28.726,0,0,0,14.754-4.07,5.77,5.77,0,0,0-5.93-9.9" transform="translate(12.861 6.621)" fill="#007864"/>
    <path id="Path_3" data-name="Path 3" d="M78.38,17.98c2.926-3.114,7.993-6.44,13.433-6.44a17.2,17.2,0,0,1,8.587,2.29,5.768,5.768,0,1,0,5.766-9.991A28.735,28.735,0,0,0,91.813,0C84.07,0,75.905,3.767,70,10.052L42.191,39.3l0,.007-.013.01c-4.2,4.453-8.595,6.615-13.439,6.615a17.2,17.2,0,0,1,0-34.4c5.44,0,10.507,3.326,13.434,6.44l.024.02.01.014,4.042,4.226a5.768,5.768,0,1,0,8.338-7.972l-4-4.185-.005-.007C44.644,3.767,36.479,0,28.735,0a28.736,28.736,0,1,0,0,57.472c8.08,0,15.426-3.445,21.835-10.237l0-.005Z" transform="translate(0 0.001)" fill="#007864"/>
    <path id="Path_4" data-name="Path 4" d="M217.832,48.858,197.769,5.136a5.767,5.767,0,0,0-10.485,0l-14.82,32.3-14.819-32.3a5.769,5.769,0,0,0-10.488,0L127.1,48.858a5.768,5.768,0,1,0,10.486,4.81l14.819-32.3,14.82,32.3a5.768,5.768,0,0,0,10.486,0l14.82-32.3,14.817,32.3a5.769,5.769,0,1,0,10.488-4.81" transform="translate(31.642 0.444)" fill="#007864"/>
  </g>
</svg>
